<?xml version="1.0" encoding="UTF-8" standalone="no"?>
<svg xmlns="http://www.w3.org/2000/svg"
     xmlns:xlink="http://www.w3.org/1999/xlink"
     width="576px" height="433px" viewBox="0 0 576 433">
<title>glps_renderer figure</title>
<desc>
Creator: GL2PS 1.3.9, (C) 1999-2015 C. Geuzaine
For: Octave
CreationDate: Mon May  7 10:19:40 2018
</desc>
<defs>
</defs>
<g shape-rendering="crispEdges">
<polygon fill="#ffffff" points="74.88,384.48 521.28,384.48 74.88,32.4"/>
<polygon fill="#ffffff" points="521.28,384.48 521.28,32.4 74.88,32.4"/>
<polyline fill="none" stroke="#000000" stroke-width="0.5" stroke-dasharray="16,0" points="74.88,384.48 521.28,384.48"/>
<polyline fill="none" stroke="#000000" stroke-width="0.5" stroke-dasharray="16,0" points="74.88,32.4 521.28,32.4"/>
<polyline fill="none" stroke="#000000" stroke-width="0.5" stroke-dasharray="16,0" points="74.88,384.48 74.88,32.4"/>
<polyline fill="none" stroke="#000000" stroke-width="0.5" stroke-dasharray="16,0" points="521.28,384.48 521.28,32.4"/>
<polyline fill="none" stroke="#000000" stroke-width="0.5" stroke-dasharray="16,0" points="74.88,384.48 74.88,380.015"/>
<polyline fill="none" stroke="#000000" stroke-width="0.5" stroke-dasharray="16,0" points="74.88,32.4 74.88,36.865"/>
<polyline fill="none" stroke="#000000" stroke-width="0.5" stroke-dasharray="16,0" points="149.28,384.48 149.28,380.015"/>
<polyline fill="none" stroke="#000000" stroke-width="0.5" stroke-dasharray="16,0" points="149.28,32.4 149.28,36.865"/>
<polyline fill="none" stroke="#000000" stroke-width="0.5" stroke-dasharray="16,0" points="223.68,384.48 223.68,380.015"/>
<polyline fill="none" stroke="#000000" stroke-width="0.5" stroke-dasharray="16,0" points="223.68,32.4 223.68,36.865"/>
<polyline fill="none" stroke="#000000" stroke-width="0.5" stroke-dasharray="16,0" points="298.08,384.48 298.08,380.015"/>
<polyline fill="none" stroke="#000000" stroke-width="0.5" stroke-dasharray="16,0" points="298.08,32.4 298.08,36.865"/>
<polyline fill="none" stroke="#000000" stroke-width="0.5" stroke-dasharray="16,0" points="372.48,384.48 372.48,380.015"/>
<polyline fill="none" stroke="#000000" stroke-width="0.5" stroke-dasharray="16,0" points="372.48,32.4 372.48,36.865"/>
<polyline fill="none" stroke="#000000" stroke-width="0.5" stroke-dasharray="16,0" points="446.88,384.48 446.88,380.015"/>
<polyline fill="none" stroke="#000000" stroke-width="0.5" stroke-dasharray="16,0" points="446.88,32.4 446.88,36.865"/>
<polyline fill="none" stroke="#000000" stroke-width="0.5" stroke-dasharray="16,0" points="521.28,384.48 521.28,380.015"/>
<polyline fill="none" stroke="#000000" stroke-width="0.5" stroke-dasharray="16,0" points="521.28,32.4 521.28,36.865"/>
<text fill="#000000" x="74.88" y="389.481" font-size="10" text-anchor="middle" baseline-shift="-10" font-family="Helvetica">-6</text>
<text fill="#000000" x="149.28" y="389.481" font-size="10" text-anchor="middle" baseline-shift="-10" font-family="Helvetica">-4</text>
<text fill="#000000" x="223.68" y="389.481" font-size="10" text-anchor="middle" baseline-shift="-10" font-family="Helvetica">-2</text>
<text fill="#000000" x="298.08" y="389.481" font-size="10" text-anchor="middle" baseline-shift="-10" font-family="Helvetica">0</text>
<text fill="#000000" x="372.48" y="389.481" font-size="10" text-anchor="middle" baseline-shift="-10" font-family="Helvetica">2</text>
<text fill="#000000" x="446.88" y="389.481" font-size="10" text-anchor="middle" baseline-shift="-10" font-family="Helvetica">4</text>
<text fill="#000000" x="521.28" y="389.481" font-size="10" text-anchor="middle" baseline-shift="-10" font-family="Helvetica">6</text>
<polyline fill="none" stroke="#000000" stroke-width="0.5" stroke-dasharray="16,0" points="74.88,384.48 79.348,384.48"/>
<polyline fill="none" stroke="#000000" stroke-width="0.5" stroke-dasharray="16,0" points="521.28,384.48 516.812,384.48"/>
<polyline fill="none" stroke="#000000" stroke-width="0.5" stroke-dasharray="16,0" points="74.88,325.8 79.348,325.8"/>
<polyline fill="none" stroke="#000000" stroke-width="0.5" stroke-dasharray="16,0" points="521.28,325.8 516.812,325.8"/>
<polyline fill="none" stroke="#000000" stroke-width="0.5" stroke-dasharray="16,0" points="74.88,267.12 79.348,267.12"/>
<polyline fill="none" stroke="#000000" stroke-width="0.5" stroke-dasharray="16,0" points="521.28,267.12 516.812,267.12"/>
<polyline fill="none" stroke="#000000" stroke-width="0.5" stroke-dasharray="16,0" points="74.88,208.44 79.348,208.44"/>
<polyline fill="none" stroke="#000000" stroke-width="0.5" stroke-dasharray="16,0" points="521.28,208.44 516.812,208.44"/>
<polyline fill="none" stroke="#000000" stroke-width="0.5" stroke-dasharray="16,0" points="74.88,149.76 79.348,149.76"/>
<polyline fill="none" stroke="#000000" stroke-width="0.5" stroke-dasharray="16,0" points="521.28,149.76 516.812,149.76"/>
<polyline fill="none" stroke="#000000" stroke-width="0.5" stroke-dasharray="16,0" points="74.88,91.08 79.348,91.08"/>
<polyline fill="none" stroke="#000000" stroke-width="0.5" stroke-dasharray="16,0" points="521.28,91.08 516.812,91.08"/>
<polyline fill="none" stroke="#000000" stroke-width="0.5" stroke-dasharray="16,0" points="74.88,32.4 79.348,32.4"/>
<polyline fill="none" stroke="#000000" stroke-width="0.5" stroke-dasharray="16,0" points="521.28,32.4 516.812,32.4"/>
<text fill="#000000" x="69.8755" y="384.48" font-size="10" text-anchor="end" baseline-shift="-5" font-family="Helvetica">-1.5</text>
<text fill="#000000" x="69.8755" y="325.8" font-size="10" text-anchor="end" baseline-shift="-5" font-family="Helvetica">-1</text>
<text fill="#000000" x="69.8755" y="267.12" font-size="10" text-anchor="end" baseline-shift="-5" font-family="Helvetica">-0.5</text>
<text fill="#000000" x="69.8755" y="208.44" font-size="10" text-anchor="end" baseline-shift="-5" font-family="Helvetica">0</text>
<text fill="#000000" x="69.8755" y="149.76" font-size="10" text-anchor="end" baseline-shift="-5" font-family="Helvetica">0.5</text>
<text fill="#000000" x="69.8755" y="91.08" font-size="10" text-anchor="end" baseline-shift="-5" font-family="Helvetica">1</text>
<text fill="#000000" x="69.8755" y="32.4" font-size="10" text-anchor="end" baseline-shift="-5" font-family="Helvetica">1.5</text>
<polyline fill="none" stroke="#0000ff" stroke-width="0.5" points="112.08,84.445 113.196,86.3478 114.312,88.4953 115.428,90.7635 116.544,93.0238 117.66,95.1492 118.776,97.0215 119.892,98.5374 121.008,99.6134 122.124,100.19 123.24,100.237 124.356,99.7509 125.472,98.7583 126.588,97.3137 127.704,95.4964 128.82,93.4069 129.936,91.1612 131.052,88.885 132.168,86.7074 133.284,84.7535 134.4,83.1384 135.516,81.9603 136.632,81.2955 137.748,81.1935 138.864,81.6742 139.98,82.7257 141.096,84.3045 142.212,86.3367 143.328,88.721 144.444,91.3332 145.56,94.0317 146.676,96.6647 147.792,99.0772 148.908,101.119 150.024,102.654 151.14,103.565 152.256,103.764 153.372,103.196 154.488,101.844 155.604,99.7339 156.72,96.9323 157.836,93.5502 158.952,89.738 160.068,85.6824 161.184,81.6 162.3,77.7306 163.416,74.328 164.532,71.651 165.648,69.9534 166.764,69.4738 167.88,70.4259 168.996,72.9893 170.112,77.3016 171.228,83.452 172.344,91.4763 173.46,101.354 174.576,113.007 175.692,126.301 176.808,141.051 177.924,157.023 179.04,173.944 180.156,191.509 181.272,209.392 182.388,227.257 183.504,244.769 184.62,261.603 185.736,277.458 186.852,292.063 187.968,305.191 189.084,316.661 190.2,326.344 191.316,334.17 192.432,340.122 193.548,344.244 194.664,346.629 195.78,347.42 196.896,346.8 198.012,344.987 199.128,342.221 200.244,338.756 201.36,334.852 202.476,330.762 203.592,326.722 204.708,322.947 205.824,319.62 206.94,316.888 208.056,314.855 209.172,313.586 210.288,313.101 211.404,313.379 212.52,314.361 213.636,315.956 214.752,318.044 215.868,320.487 216.984,323.134 218.1,325.831 219.216,328.425 220.332,330.778 221.448,332.766 222.564,334.292 223.68,335.284 224.796,335.703 225.912,335.54 227.028,334.818 228.144,333.589 229.26,331.933 230.376,329.95 231.492,327.756 232.608,325.477 233.724,323.242 234.84,321.176 235.956,319.394 237.072,317.994 238.188,317.053 239.304,316.622 240.42,316.726 241.536,317.358 242.652,318.484 243.768,320.042 244.884,321.946 246,324.092 247.116,326.359 248.232,328.621 249.348,330.748 250.464,332.618 251.58,334.12 252.696,335.16 253.812,335.671 254.928,335.611 256.044,334.967 257.16,333.762 258.276,332.048 259.392,329.906 260.508,327.444 261.624,324.793 262.74,322.097 263.856,319.51 264.972,317.187 266.088,315.274 267.204,313.903 268.32,313.184 269.436,313.196 270.552,313.984 271.668,315.553 272.784,317.866 273.9,320.843 275.016,324.362 276.132,328.263 277.248,332.349 278.364,336.397 279.48,340.161 280.596,343.387 281.712,345.814 282.828,347.194 283.944,347.292 285.06,345.905 286.176,342.863 287.292,338.043 288.408,331.368 289.524,322.82 290.64,312.435 291.756,300.306 292.872,286.583 293.988,271.465 295.104,255.198 296.22,238.065 297.336,220.377 298.452,202.465 299.568,184.665 300.684,167.311 301.8,150.723 302.916,135.193 304.032,120.98 305.148,108.301 306.264,97.3209 307.38,88.1535 308.496,80.8539 309.612,75.421 310.728,71.7979 311.844,69.8759 312.96,69.5005 314.076,70.4776 315.192,72.583 316.308,75.571 317.424,79.1846 318.54,83.1659 319.656,87.2652 320.772,91.251 321.888,94.9172 323.004,98.0907 324.12,100.636 325.236,102.459 326.352,103.509 327.468,103.776 328.584,103.294 329.7,102.129 330.816,100.383 331.932,98.1808 333.048,95.6649 334.164,92.9883 335.28,90.3055 336.396,87.7654 337.512,85.5036 338.628,83.636 339.744,82.2538 340.86,81.4194 341.976,81.1642 343.092,81.4877 344.208,82.3583 345.324,83.7156 346.44,85.4744 347.556,87.5291 348.672,89.76 349.788,92.0396 350.904,94.2395 352.02,96.2368 353.136,97.9209 354.252,99.199 355.368,100.001 356.484,100.283 357.6,100.029 358.716,99.2541 359.832,97.9997 360.948,96.335 362.064,94.3517 363.18,92.1595 364.296,89.8809 365.412,87.6442 366.528,85.577 367.644,83.7998 368.76,82.4188 369.876,81.5206 370.992,81.167 372.108,81.3912 373.224,82.1953 374.34,83.5497 375.456,85.3936 376.572,87.6372 377.688,90.1658 378.804,92.8446 379.92,95.5255 381.036,98.0538 382.152,100.277 383.268,102.05 384.384,103.248 385.5,103.769 386.616,103.542 387.732,102.535 388.848,100.752 389.964,98.2426 391.08,95.0994 392.196,91.4553 393.312,87.4816 394.428,83.3827 395.544,79.389 396.66,75.7494 397.776,72.7217 398.892,70.5631 400.008,69.5202 401.124,69.8187 402.24,71.6543 403.356,75.184 404.472,80.5189 405.588,87.7188 406.704,96.7879 407.82,107.674 408.936,120.267 410.052,134.403 411.168,149.869 412.284,166.409 413.4,183.73 414.516,201.514 415.632,219.429 416.748,237.137 417.864,254.308 418.98,270.628 420.096,285.813 421.212,299.616 422.328,311.834 423.444,322.314 424.56,330.962 425.676,337.735 426.792,342.653 427.908,345.786 429.024,347.258 430.14,347.233 431.256,345.916 432.372,343.538 433.488,340.348 434.604,336.606 435.72,332.567 436.836,328.477 437.952,324.561 439.068,321.017 440.184,318.008 441.3,315.657 442.416,314.048 443.532,313.218 444.648,313.166 445.764,313.848 446.88,315.186 447.996,317.074 449.112,319.379 450.228,321.956 451.344,324.65 452.46,327.307 453.576,329.782 454.692,331.944 455.808,333.684 456.924,334.917 458.04,335.591 459.156,335.683 460.272,335.201 461.388,334.187 462.504,332.708 463.62,330.855 464.736,328.738 465.852,326.48 466.968,324.21 468.084,322.055 469.2,320.135 470.316,318.556 471.432,317.406 472.548,316.746 473.664,316.614 474.78,317.017 475.896,317.932 477.012,319.309 478.128,321.073 479.244,323.127 480.36,325.356 481.476,327.636 482.592,329.838 483.708,331.835"/>
<polyline fill="none" stroke="#ff0000" stroke-width="0.5" points="112.08,91.08 113.196,91.08 114.312,91.08 115.428,91.08 116.544,91.08 117.66,91.08 118.776,91.08 119.892,91.08 121.008,91.08 122.124,91.08 123.24,91.08 124.356,91.08 125.472,91.08 126.588,91.08 127.704,91.08 128.82,91.08 129.936,91.08 131.052,91.08 132.168,91.08 133.284,91.08 134.4,91.08 135.516,91.08 136.632,91.08 137.748,91.08 138.864,91.08 139.98,91.08 141.096,91.08 142.212,91.08 143.328,91.08 144.444,91.08 145.56,91.08 146.676,91.08 147.792,91.08 148.908,91.08 150.024,91.08 151.14,91.08 152.256,91.08 153.372,91.08 154.488,91.08 155.604,91.08 156.72,91.08 157.836,91.08 158.952,91.08 160.068,91.08 161.184,91.08 162.3,91.08 163.416,91.08 164.532,91.08 165.648,91.08 166.764,91.08 167.88,91.08 168.996,91.08 170.112,91.08 171.228,91.08 172.344,91.08 173.46,91.08 174.576,91.08 175.692,91.08 176.808,91.08 177.924,91.08 179.04,91.08 180.156,91.08 181.272,325.8 182.388,325.8 183.504,325.8 184.62,325.8 185.736,325.8 186.852,325.8 187.968,325.8 189.084,325.8 190.2,325.8 191.316,325.8 192.432,325.8 193.548,325.8 194.664,325.8 195.78,325.8 196.896,325.8 198.012,325.8 199.128,325.8 200.244,325.8 201.36,325.8 202.476,325.8 203.592,325.8 204.708,325.8 205.824,325.8 206.94,325.8 208.056,325.8 209.172,325.8 210.288,325.8 211.404,325.8 212.52,325.8 213.636,325.8 214.752,325.8 215.868,325.8 216.984,325.8 218.1,325.8 219.216,325.8 220.332,325.8 221.448,325.8 222.564,325.8 223.68,325.8 224.796,325.8 225.912,325.8 227.028,325.8 228.144,325.8 229.26,325.8 230.376,325.8 231.492,325.8 232.608,325.8 233.724,325.8 234.84,325.8 235.956,325.8 237.072,325.8 238.188,325.8 239.304,325.8 240.42,325.8 241.536,325.8 242.652,325.8 243.768,325.8 244.884,325.8 246,325.8 247.116,325.8 248.232,325.8 249.348,325.8 250.464,325.8 251.58,325.8 252.696,325.8 253.812,325.8 254.928,325.8 256.044,325.8 257.16,325.8 258.276,325.8 259.392,325.8 260.508,325.8 261.624,325.8 262.74,325.8 263.856,325.8 264.972,325.8 266.088,325.8 267.204,325.8 268.32,325.8 269.436,325.8 270.552,325.8 271.668,325.8 272.784,325.8 273.9,325.8 275.016,325.8 276.132,325.8 277.248,325.8 278.364,325.8 279.48,325.8 280.596,325.8 281.712,325.8 282.828,325.8 283.944,325.8 285.06,325.8 286.176,325.8 287.292,325.8 288.408,325.8 289.524,325.8 290.64,325.8 291.756,325.8 292.872,325.8 293.988,325.8 295.104,325.8 296.22,325.8 297.336,325.8 298.452,91.08 299.568,91.08 300.684,91.08 301.8,91.08 302.916,91.08 304.032,91.08 305.148,91.08 306.264,91.08 307.38,91.08 308.496,91.08 309.612,91.08 310.728,91.08 311.844,91.08 312.96,91.08 314.076,91.08 315.192,91.08 316.308,91.08 317.424,91.08 318.54,91.08 319.656,91.08 320.772,91.08 321.888,91.08 323.004,91.08 324.12,91.08 325.236,91.08 326.352,91.08 327.468,91.08 328.584,91.08 329.7,91.08 330.816,91.08 331.932,91.08 333.048,91.08 334.164,91.08 335.28,91.08 336.396,91.08 337.512,91.08 338.628,91.08 339.744,91.08 340.86,91.08 341.976,91.08 343.092,91.08 344.208,91.08 345.324,91.08 346.44,91.08 347.556,91.08 348.672,91.08 349.788,91.08 350.904,91.08 352.02,91.08 353.136,91.08 354.252,91.08 355.368,91.08 356.484,91.08 357.6,91.08 358.716,91.08 359.832,91.08 360.948,91.08 362.064,91.08 363.18,91.08 364.296,91.08 365.412,91.08 366.528,91.08 367.644,91.08 368.76,91.08 369.876,91.08 370.992,91.08 372.108,91.08 373.224,91.08 374.34,91.08 375.456,91.08 376.572,91.08 377.688,91.08 378.804,91.08 379.92,91.08 381.036,91.08 382.152,91.08 383.268,91.08 384.384,91.08 385.5,91.08 386.616,91.08 387.732,91.08 388.848,91.08 389.964,91.08 391.08,91.08 392.196,91.08 393.312,91.08 394.428,91.08 395.544,91.08 396.66,91.08 397.776,91.08 398.892,91.08 400.008,91.08 401.124,91.08 402.24,91.08 403.356,91.08 404.472,91.08 405.588,91.08 406.704,91.08 407.82,91.08 408.936,91.08 410.052,91.08 411.168,91.08 412.284,91.08 413.4,91.08 414.516,91.08 415.632,325.8 416.748,325.8 417.864,325.8 418.98,325.8 420.096,325.8 421.212,325.8 422.328,325.8 423.444,325.8 424.56,325.8 425.676,325.8 426.792,325.8 427.908,325.8 429.024,325.8 430.14,325.8 431.256,325.8 432.372,325.8 433.488,325.8 434.604,325.8 435.72,325.8 436.836,325.8 437.952,325.8 439.068,325.8 440.184,325.8 441.3,325.8 442.416,325.8 443.532,325.8 444.648,325.8 445.764,325.8 446.88,325.8 447.996,325.8 449.112,325.8 450.228,325.8 451.344,325.8 452.46,325.8 453.576,325.8 454.692,325.8 455.808,325.8 456.924,325.8 458.04,325.8 459.156,325.8 460.272,325.8 461.388,325.8 462.504,325.8 463.62,325.8 464.736,325.8 465.852,325.8 466.968,325.8 468.084,325.8 469.2,325.8 470.316,325.8 471.432,325.8 472.548,325.8 473.664,325.8 474.78,325.8 475.896,325.8 477.012,325.8 478.128,325.8 479.244,325.8 480.36,325.8 481.476,325.8 482.592,325.8 483.708,325.8"/>
<text fill="#000000" x="298.08" y="22.4" font-size="10" text-anchor="middle" baseline-shift="0" font-family="Helvetica">n=4</text>
</g>
</svg>
